<svg width="40" height="43" viewBox="0 0 40 43" fill="none" xmlns="http://www.w3.org/2000/svg">
<path d="M20.3333 2.66693C15.5224 2.61575 10.889 4.56632 7.45122 8.08996C4.01348 11.6136 2.05277 16.422 2 21.4583C2.01854 25.4385 3.24157 29.3101 5.49344 32.5171C7.7453 35.7241 10.9101 38.1014 14.5333 39.3076C15.45 39.482 15.7833 38.9063 15.7833 38.4003C15.7833 37.8943 15.7833 36.7776 15.7833 35.2073C10.6833 36.3414 9.6 32.6948 9.6 32.6948C9.26049 31.55 8.53872 30.5715 7.56667 29.938C5.9 28.7865 7.7 28.8039 7.7 28.8039C8.27609 28.8845 8.82726 29.1007 9.31218 29.4361C9.79711 29.7715 10.2032 30.2175 10.5 30.7406C11.0172 31.6795 11.8659 32.3683 12.8634 32.6588C13.8608 32.9492 14.9273 32.818 15.8333 32.2935C15.9265 31.338 16.3398 30.4479 17 29.781C12.9333 29.3099 8.66667 27.7047 8.66667 20.4987C8.6303 18.619 9.29374 16.7982 10.5167 15.4214C9.95971 13.8075 10.0255 12.03 10.7 10.4661C10.7 10.4661 12.25 9.96016 15.7 12.3854C18.7032 11.5476 21.8635 11.5476 24.8667 12.3854C28.3667 9.96016 29.8667 10.4661 29.8667 10.4661C30.5412 12.03 30.607 13.8075 30.05 15.4214C31.3013 16.773 32.0008 18.5815 32 20.4638C32 27.6872 27.7 29.275 23.6667 29.7461C24.1083 30.195 24.4495 30.7407 24.6656 31.3441C24.8817 31.9475 24.9675 32.5935 24.9167 33.2357V38.3828C24.9167 38.3828 25.25 39.482 26.1667 39.2901C29.7796 38.0764 32.9338 35.6986 35.1787 32.4961C37.4236 29.2937 38.6443 25.4305 38.6667 21.4583C38.6139 16.422 36.6532 11.6136 33.2154 8.08996C29.7777 4.56632 25.1442 2.61575 20.3333 2.66693Z" fill="white"/>
</svg>
